# xmcd CD database file
#
# Track frame offsets:
#	150
#	11869
#	26851
#	44439
#	64762
#	90370
#	101903
#	123934
#	150387
#	161400
#	175985
#
# Disc length: 2538 seconds
#
# Revision: 0
# Processed by: cddbd v1.5.2PL0 Copyright (c) Steve Scherf et al.
# Submitted via: CDex 1.51
#
DISCID=8709e80b
DTITLE=Stefan TiefenBacher - Walter Weh - Out Of Oblivion
DYEAR=2006
DGENRE=Blues
TTITLE0=Space
TTITLE1=For you (Band)
TTITLE2=Out of Oblivion
TTITLE3=Blues for my mother
TTITLE4=Space (Band)
TTITLE5=For my friends
TTITLE6=Mr. Bi (Band)
TTITLE7=Blues for my mother (Band)
TTITLE8=For you
TTITLE9=Blues Jam (mit Band)
TTITLE10=BONUSTRACK - Space
EXTD=YEAR: 2006
EXTT0=
EXTT1=
EXTT2=
EXTT3=
EXTT4=
EXTT5=
EXTT6=
EXTT7=
EXTT8=
EXTT9=
EXTT10=
PLAYORDER=
